# xmcd
# 
# Track frame offsets:
#     150
#     17665
#     30780
#     47235
#     65003
#     80236
#     100146
#     115365
#     132618
#     150550
#     165872
#     180216
#     197067
# 
# Disc length: 2923
# 
# Revision: 3
# Processed by: cddbd v1.5.2PL0 Copyright (c) Steve Scherf et al.
# Submitted via: fre:ac v1.0.17
# 
DISCID=a10b690d
DTITLE=Moriarty - Epitaph
DYEAR=2015
DGENRE=Blues
TTITLE0=When I Ride
TTITLE1=Reverse (Anger)
TTITLE2=History of Violence
TTITLE3=Long Live the (D)evil
TTITLE4=Milena
TTITLE5=Diamonds Never Die
TTITLE6=Ginger Joe
TTITLE7=Maybe a Little Lie
TTITLE8=Across From My Windows
TTITLE9=G.I. Jesus
TTITLE10=Back in Town
TTITLE11=Fire Fire
TTITLE12=Long Is the Night
EXTD=
EXTT0=
EXTT1=
EXTT2=
EXTT3=
EXTT4=
EXTT5=
EXTT6=
EXTT7=
EXTT8=
EXTT9=
EXTT10=
EXTT11=
EXTT12=
PLAYORDER=
